<svg version="1.1" id="Layer_1" xmlns="http://www.w3.org/2000/svg" xmlns:xlink="http://www.w3.org/1999/xlink" x="0px" y="0px"
	 width="100%" viewBox="0 0 670 670" enable-background="new 0 0 670 670" xml:space="preserve">
<path fill="#FEFEFE" opacity="1.000000" stroke="none" 
	d="
M388.000000,671.000000 
	C258.666656,671.000000 129.833328,671.000000 1.000000,671.000000 
	C1.000000,447.666656 1.000000,224.333328 1.000000,1.000000 
	C224.333328,1.000000 447.666656,1.000000 671.000000,1.000000 
	C671.000000,224.333328 671.000000,447.666656 671.000000,671.000000 
	C576.833313,671.000000 482.666656,671.000000 388.000000,671.000000 
M376.171173,167.088974 
	C376.267426,163.771790 375.901825,160.363449 376.535522,157.152313 
	C380.430725,137.413788 384.589142,117.727409 388.580048,98.007500 
	C390.291809,89.549339 392.427094,81.130020 390.493469,72.352722 
	C386.091553,52.370636 369.812256,39.770737 347.849640,39.719135 
	C316.521362,39.645531 285.192810,39.699848 253.864365,39.699249 
	C211.371002,39.698437 168.877609,39.674042 126.384270,39.707077 
	C107.574806,39.721699 91.338112,53.129581 87.815491,71.101555 
	C83.782822,91.675705 79.513092,112.203423 75.338249,132.749664 
	C74.651276,136.130539 73.922661,139.502960 73.213287,142.879288 
	C73.598412,143.056458 73.983543,143.233627 74.368668,143.410812 
	C75.272034,142.172623 76.180069,140.937805 77.078033,139.695709 
	C85.287354,128.340424 95.942261,121.899384 110.397667,121.921051 
	C185.219147,122.033203 260.040894,121.963196 334.862518,122.003044 
	C337.668213,122.004539 340.543793,122.174995 343.267700,122.792320 
	C360.268250,126.645172 376.262573,143.523453 373.940521,167.821213 
	C372.951508,172.535309 371.948212,177.246445 370.975983,181.963989 
	C366.985931,201.324936 363.005402,220.687836 358.322510,239.711670 
	C357.833313,237.607681 357.398499,235.489319 356.846344,233.401993 
	C352.319122,216.287415 336.331848,203.366745 319.415405,203.357239 
	C243.416031,203.314514 167.416611,203.307144 91.417236,203.339172 
	C74.572922,203.346268 58.198845,216.833023 54.798889,233.310852 
	C52.211384,245.851151 49.649799,258.396942 47.122650,270.949524 
	C44.781994,282.575775 42.502346,294.214294 40.195831,305.847412 
	C42.073860,305.269135 43.089729,304.156799 43.974297,302.948364 
	C52.395130,291.444397 63.457623,285.290100 77.973534,285.305847 
	C152.472870,285.386749 226.972549,285.444397 301.471619,285.280121 
	C323.830627,285.230835 341.066620,305.166931 341.064392,322.056183 
	C341.064331,322.680786 341.552795,323.305450 342.135284,324.700562 
	C342.644165,323.241119 342.924072,322.667877 343.043488,322.062988 
	C347.712341,298.412781 352.353058,274.756958 357.083862,251.119156 
	C357.234650,250.365768 358.290283,249.793472 358.984924,249.968811 
	C360.169037,254.006012 360.842041,258.286926 362.629791,262.036285 
	C368.852539,275.086792 379.173920,283.408966 393.616760,285.040985 
	C402.303925,286.022583 411.205780,285.104156 420.917664,285.292877 
	C456.564789,285.303833 492.211884,285.327911 527.859009,285.321472 
	C554.882629,285.316589 573.042297,307.675171 567.672668,334.163055 
	C557.300842,385.326691 547.042603,436.513367 536.730042,487.688995 
	C535.908630,491.764893 535.011169,495.825439 534.184082,499.900208 
	C529.681396,522.085266 515.058899,534.087830 492.362427,534.115906 
	C443.226257,534.176575 394.089996,534.200989 344.208221,533.981079 
	C323.810028,530.320740 312.914459,517.049927 307.873077,497.647614 
	C306.733093,501.363312 306.105072,504.859497 305.400909,508.340302 
	C301.188843,529.161499 296.606689,549.915649 292.840118,570.816895 
	C289.446106,589.650757 303.385437,610.033447 322.500275,614.970215 
	C325.791138,615.358337 329.081726,616.082031 332.372955,616.085144 
	C400.869904,616.149719 469.366882,616.134888 537.863892,616.130188 
	C567.151062,616.128174 593.321655,597.305542 601.906494,569.346741 
	C604.971558,559.364380 606.714478,548.961426 608.816284,538.700317 
	C625.805908,455.755951 642.631531,372.777802 659.765259,289.863281 
	C663.742371,270.617310 662.598938,252.301346 651.847168,235.530319 
	C637.804260,213.625854 617.560852,203.113937 591.375183,203.264221 
	C543.545715,203.538757 495.713501,203.334167 447.882446,203.345078 
	C446.229431,203.345444 444.576447,203.513397 442.025574,203.357086 
	C433.213043,203.351120 424.398224,203.216919 415.588684,203.376755 
	C407.442413,203.524551 400.196198,200.981064 393.629791,196.440720 
	C383.660950,189.547729 378.248749,179.733627 376.171173,167.088974 
M321.877686,390.762146 
	C314.872375,376.748505 303.878845,367.237091 288.034729,367.146606 
	C211.212372,366.707947 134.386017,366.892456 57.561314,367.005371 
	C41.523384,367.028961 24.973242,381.389923 21.940874,397.020996 
	C18.837666,413.017212 15.550669,428.977844 12.326965,444.950592 
	C10.650867,453.255280 8.937780,461.552490 7.241401,469.853088 
	C9.195050,469.207611 10.164016,468.037964 11.049664,466.808289 
	C19.139820,455.575714 29.812366,448.984100 43.915676,448.976257 
	C118.407509,448.934784 192.899384,448.955566 267.391235,448.994476 
	C270.205109,448.995972 273.110321,449.029480 275.817902,449.686768 
	C294.800201,454.295044 304.950012,466.999786 308.616638,487.066528 
	C309.700287,484.443207 310.611938,482.941406 310.946228,481.320526 
	C315.379303,459.824280 319.493622,438.258881 324.218048,416.827728 
	C326.168579,407.979614 325.572174,399.705750 321.877686,390.762146 
z"/>
<path fill="#2C2C2C" opacity="1.000000" stroke="none" 
	d="
M442.923462,203.603241 
	C444.576447,203.513397 446.229431,203.345444 447.882446,203.345078 
	C495.713501,203.334167 543.545715,203.538757 591.375183,203.264221 
	C617.560852,203.113937 637.804260,213.625854 651.847168,235.530319 
	C662.598938,252.301346 663.742371,270.617310 659.765259,289.863281 
	C642.631531,372.777802 625.805908,455.755951 608.816284,538.700317 
	C606.714478,548.961426 604.971558,559.364380 601.906494,569.346741 
	C593.321655,597.305542 567.151062,616.128174 537.863892,616.130188 
	C469.366882,616.134888 400.869904,616.149719 332.372955,616.085144 
	C329.081726,616.082031 325.791138,615.358337 322.298645,614.344727 
	C328.691132,591.711792 335.332489,569.718323 341.839630,547.685059 
	C343.140289,543.281006 343.929016,538.725830 344.953796,534.240234 
	C394.089996,534.200989 443.226257,534.176575 492.362427,534.115906 
	C515.058899,534.087830 529.681396,522.085266 534.184082,499.900208 
	C535.011169,495.825439 535.908630,491.764893 536.730042,487.688995 
	C547.042603,436.513367 557.300842,385.326691 567.672668,334.163055 
	C573.042297,307.675171 554.882629,285.316589 527.859009,285.321472 
	C492.211884,285.327911 456.564789,285.303833 420.465637,284.765503 
	C425.030060,266.913635 430.091827,249.602127 435.045074,232.259598 
	C437.765594,222.734436 440.303314,213.157074 442.923462,203.603241 
z"/>
<path fill="#2C2C2C" opacity="1.000000" stroke="none" 
	d="
M358.924072,249.136749 
	C358.290283,249.793472 357.234650,250.365768 357.083862,251.119156 
	C352.353058,274.756958 347.712341,298.412781 343.043488,322.062988 
	C342.924072,322.667877 342.644165,323.241119 342.135284,324.700562 
	C341.552795,323.305450 341.064331,322.680786 341.064392,322.056183 
	C341.066620,305.166931 323.830627,285.230835 301.471619,285.280121 
	C226.972549,285.444397 152.472870,285.386749 77.973534,285.305847 
	C63.457623,285.290100 52.395130,291.444397 43.974297,302.948364 
	C43.089729,304.156799 42.073860,305.269135 40.195831,305.847412 
	C42.502346,294.214294 44.781994,282.575775 47.122650,270.949524 
	C49.649799,258.396942 52.211384,245.851151 54.798889,233.310852 
	C58.198845,216.833023 74.572922,203.346268 91.417236,203.339172 
	C167.416611,203.307144 243.416031,203.314514 319.415405,203.357239 
	C336.331848,203.366745 352.319122,216.287415 356.846344,233.401993 
	C357.398499,235.489319 357.833313,237.607681 358.714417,240.331238 
	C359.045593,243.679459 358.984833,246.408096 358.924072,249.136749 
z"/>
<path fill="#2C2C2C" opacity="1.000000" stroke="none" 
	d="
M322.010559,391.120880 
	C325.572174,399.705750 326.168579,407.979614 324.218048,416.827728 
	C319.493622,438.258881 315.379303,459.824280 310.946228,481.320526 
	C310.611938,482.941406 309.700287,484.443207 308.616638,487.066528 
	C304.950012,466.999786 294.800201,454.295044 275.817902,449.686768 
	C273.110321,449.029480 270.205109,448.995972 267.391235,448.994476 
	C192.899384,448.955566 118.407509,448.934784 43.915676,448.976257 
	C29.812366,448.984100 19.139820,455.575714 11.049664,466.808289 
	C10.164016,468.037964 9.195050,469.207611 7.241401,469.853088 
	C8.937780,461.552490 10.650867,453.255280 12.326965,444.950592 
	C15.550669,428.977844 18.837666,413.017212 21.940874,397.020996 
	C24.973242,381.389923 41.523384,367.028961 57.561314,367.005371 
	C134.386017,366.892456 211.212372,366.707947 288.034729,367.146606 
	C303.878845,367.237091 314.872375,376.748505 322.010559,391.120880 
z"/>
<path fill="#2C2C2C" opacity="1.000000" stroke="none" 
	d="
M374.164337,167.049805 
	C376.262573,143.523453 360.268250,126.645172 343.267700,122.792320 
	C340.543793,122.174995 337.668213,122.004539 334.862518,122.003044 
	C260.040894,121.963196 185.219147,122.033203 110.397667,121.921051 
	C95.942261,121.899384 85.287354,128.340424 77.078033,139.695709 
	C76.180069,140.937805 75.272034,142.172623 74.368668,143.410812 
	C73.983543,143.233627 73.598412,143.056458 73.213287,142.879288 
	C73.922661,139.502960 74.651276,136.130539 75.338249,132.749664 
	C79.513092,112.203423 83.782822,91.675705 87.815491,71.101555 
	C91.338112,53.129581 107.574806,39.721699 126.384270,39.707077 
	C168.877609,39.674042 211.371002,39.698437 253.864365,39.699249 
	C285.192810,39.699848 316.521362,39.645531 347.849640,39.719135 
	C369.812256,39.770737 386.091553,52.370636 390.493469,72.352722 
	C392.427094,81.130020 390.291809,89.549339 388.580048,98.007500 
	C384.589142,117.727409 380.430725,137.413788 376.535522,157.152313 
	C375.901825,160.363449 376.267426,163.771790 375.851440,167.453796 
	C375.075928,167.562347 374.620148,167.306076 374.164337,167.049805 
z"/>
<path fill="#020202" opacity="1.000000" stroke="none" 
	d="
M374.052429,167.435516 
	C374.620148,167.306076 375.075928,167.562347 375.777740,167.907410 
	C378.248749,179.733627 383.660950,189.547729 393.629791,196.440720 
	C400.196198,200.981064 407.442413,203.524551 415.588684,203.376755 
	C424.398224,203.216919 433.213043,203.351120 442.474518,203.480164 
	C440.303314,213.157074 437.765594,222.734436 435.045074,232.259598 
	C430.091827,249.602127 425.030060,266.913635 420.012390,284.638855 
	C411.205780,285.104156 402.303925,286.022583 393.616760,285.040985 
	C379.173920,283.408966 368.852539,275.086792 362.629791,262.036285 
	C360.842041,258.286926 360.169037,254.006012 358.954498,249.552780 
	C358.984833,246.408096 359.045593,243.679459 359.063843,240.500397 
	C363.005402,220.687836 366.985931,201.324936 370.975983,181.963989 
	C371.948212,177.246445 372.951508,172.535309 374.052429,167.435516 
z"/>
<path fill="#030303" opacity="1.000000" stroke="none" 
	d="
M344.580994,534.110718 
	C343.929016,538.725830 343.140289,543.281006 341.839630,547.685059 
	C335.332489,569.718323 328.691132,591.711792 321.993591,614.114075 
	C303.385437,610.033447 289.446106,589.650757 292.840118,570.816895 
	C296.606689,549.915649 301.188843,529.161499 305.400909,508.340302 
	C306.105072,504.859497 306.733093,501.363312 307.873077,497.647614 
	C312.914459,517.049927 323.810028,530.320740 344.580994,534.110718 
z"/>
</svg>