<?xml version="1.0" encoding="UTF-8"?>
<svg xmlns="http://www.w3.org/2000/svg" xmlns:xlink="http://www.w3.org/1999/xlink" width="32px" height="32px" viewBox="0 0 32 32" version="1.1">
<g id="surface1">
<path style=" stroke:none;fill-rule:nonzero;fill:rgb(98.823529%,98.823529%,98.823529%);fill-opacity:1;" d="M 18.5 32.25 C 12.332031 32.25 6.292969 32.25 0.25 32.25 C 0.25 21.582031 0.25 10.917969 0.25 0.25 C 10.917969 0.25 21.582031 0.25 32.25 0.25 C 32.25 10.917969 32.25 21.582031 32.25 32.25 C 27.707031 32.25 23.167969 32.25 18.5 32.25 M 17.410156 12.480469 C 18.011719 13.953125 19.207031 13.960938 20.71875 13.8125 C 22.132812 13.816406 23.542969 13.808594 24.957031 13.824219 C 26.898438 13.847656 27.589844 14.683594 27.21875 16.597656 C 26.761719 18.960938 26.265625 21.316406 25.785156 23.671875 C 25.460938 25.257812 24.933594 25.703125 23.339844 25.71875 C 21.144531 25.742188 18.945312 25.757812 16.582031 25.710938 C 15.976562 25.320312 15.371094 24.929688 14.777344 24.550781 C 14.601562 25.402344 14.359375 26.355469 14.21875 27.324219 C 14.042969 28.546875 14.613281 29.308594 15.921875 29.621094 C 19.171875 29.628906 22.421875 29.652344 25.667969 29.632812 C 27.359375 29.625 28.644531 28.78125 28.964844 27.300781 C 29.949219 22.746094 30.910156 18.179688 31.75 13.597656 C 32.109375 11.625 30.691406 9.988281 28.746094 9.949219 C 26.25 9.902344 23.75 9.972656 21.046875 9.9375 C 19.8125 10.03125 18.6875 9.871094 18.121094 8.296875 C 17.789062 9.546875 17.535156 10.488281 17.257812 11.230469 C 16.8125 10.398438 16.1875 9.917969 15.171875 9.925781 C 11.71875 9.953125 8.261719 9.9375 4.804688 9.933594 C 3.613281 9.929688 2.960938 10.53125 2.742188 11.679688 C 2.570312 12.59375 2.363281 13.507812 2.226562 14.171875 C 3.367188 14.058594 4.5625 13.863281 5.761719 13.839844 C 8.339844 13.785156 10.925781 13.863281 13.503906 13.804688 C 14.78125 13.773438 15.886719 13.941406 16.613281 15.328125 C 16.863281 14.195312 17.066406 13.273438 17.410156 12.480469 M 10.125 2.078125 C 8.917969 2.078125 7.6875 1.9375 6.515625 2.128906 C 5.796875 2.246094 4.871094 2.71875 4.558594 3.304688 C 4.070312 4.234375 4.023438 5.394531 3.820312 6.3125 C 4.996094 6.210938 6.085938 6.050781 7.179688 6.035156 C 9.761719 5.992188 12.339844 6.050781 14.921875 6.011719 C 16.226562 5.988281 17.484375 5.957031 18.171875 7.6875 C 18.402344 6.609375 18.566406 5.882812 18.710938 5.148438 C 19.144531 2.953125 18.453125 2.089844 16.242188 2.082031 C 14.285156 2.070312 12.332031 2.078125 10.125 2.078125 M 10.375 17.730469 C 8.007812 17.730469 5.636719 17.648438 3.273438 17.78125 C 2.617188 17.816406 1.6875 18.332031 1.425781 18.882812 C 0.949219 19.878906 0.882812 21.074219 0.660156 22.109375 C 1.472656 21.941406 2.144531 21.6875 2.816406 21.679688 C 6.054688 21.636719 9.296875 21.679688 12.535156 21.652344 C 13.648438 21.640625 14.484375 21.972656 14.953125 23.363281 C 15.238281 22.121094 15.496094 21.144531 15.679688 20.152344 C 15.9375 18.761719 15.144531 17.78125 13.738281 17.738281 C 12.703125 17.703125 11.664062 17.730469 10.375 17.730469 Z M 10.375 17.730469 "/>
<path style=" stroke:none;fill-rule:nonzero;fill:rgb(18.431373%,18.431373%,18.431373%);fill-opacity:1;" d="M 16.746094 25.773438 C 18.945312 25.757812 21.144531 25.742188 23.339844 25.71875 C 24.933594 25.703125 25.460938 25.257812 25.785156 23.671875 C 26.265625 21.316406 26.761719 18.960938 27.21875 16.597656 C 27.589844 14.683594 26.898438 13.847656 24.957031 13.824219 C 23.542969 13.808594 22.132812 13.816406 20.605469 13.671875 C 20.742188 12.351562 20.996094 11.171875 21.253906 9.992188 C 23.75 9.972656 26.25 9.902344 28.746094 9.949219 C 30.691406 9.988281 32.109375 11.625 31.75 13.597656 C 30.910156 18.179688 29.949219 22.746094 28.964844 27.300781 C 28.644531 28.78125 27.359375 29.625 25.667969 29.632812 C 22.421875 29.652344 19.171875 29.628906 15.835938 29.46875 C 16.082031 28.136719 16.414062 26.953125 16.746094 25.773438 Z M 16.746094 25.773438 "/>
<path style=" stroke:none;fill-rule:nonzero;fill:rgb(19.607843%,19.607843%,19.607843%);fill-opacity:1;" d="M 10.25 2.078125 C 12.332031 2.078125 14.285156 2.070312 16.242188 2.082031 C 18.453125 2.089844 19.144531 2.953125 18.710938 5.148438 C 18.566406 5.882812 18.402344 6.609375 18.171875 7.6875 C 17.484375 5.957031 16.226562 5.988281 14.921875 6.011719 C 12.339844 6.050781 9.761719 5.992188 7.179688 6.035156 C 6.085938 6.050781 4.996094 6.210938 3.820312 6.3125 C 4.023438 5.394531 4.070312 4.234375 4.558594 3.304688 C 4.871094 2.71875 5.796875 2.246094 6.515625 2.128906 C 7.6875 1.9375 8.917969 2.078125 10.25 2.078125 Z M 10.25 2.078125 "/>
<path style=" stroke:none;fill-rule:nonzero;fill:rgb(19.607843%,19.607843%,19.607843%);fill-opacity:1;" d="M 10.5 17.730469 C 11.664062 17.730469 12.703125 17.703125 13.738281 17.738281 C 15.144531 17.78125 15.9375 18.761719 15.679688 20.152344 C 15.496094 21.144531 15.238281 22.121094 14.953125 23.363281 C 14.484375 21.972656 13.648438 21.640625 12.535156 21.652344 C 9.296875 21.679688 6.054688 21.636719 2.816406 21.679688 C 2.144531 21.6875 1.472656 21.941406 0.660156 22.109375 C 0.882812 21.074219 0.949219 19.878906 1.425781 18.882812 C 1.6875 18.332031 2.617188 17.816406 3.273438 17.78125 C 5.636719 17.648438 8.007812 17.730469 10.5 17.730469 Z M 10.5 17.730469 "/>
<path style=" stroke:none;fill-rule:nonzero;fill:rgb(18.039216%,18.039216%,18.039216%);fill-opacity:1;" d="M 17.269531 12.355469 C 17.066406 13.273438 16.863281 14.195312 16.613281 15.328125 C 15.886719 13.941406 14.78125 13.773438 13.503906 13.804688 C 10.925781 13.863281 8.339844 13.785156 5.761719 13.839844 C 4.5625 13.863281 3.367188 14.058594 2.226562 14.171875 C 2.363281 13.507812 2.570312 12.59375 2.742188 11.679688 C 2.960938 10.53125 3.613281 9.929688 4.804688 9.933594 C 8.261719 9.9375 11.71875 9.953125 15.171875 9.925781 C 16.1875 9.917969 16.8125 10.398438 17.335938 11.355469 C 17.367188 11.773438 17.316406 12.0625 17.269531 12.355469 Z M 17.269531 12.355469 "/>
<path style=" stroke:none;fill-rule:nonzero;fill:rgb(2.745098%,2.745098%,2.745098%);fill-opacity:1;" d="M 17.339844 12.417969 C 17.316406 12.0625 17.367188 11.773438 17.351562 11.453125 C 17.535156 10.488281 17.789062 9.546875 18.121094 8.296875 C 18.6875 9.871094 19.8125 10.03125 21.152344 9.964844 C 20.996094 11.171875 20.742188 12.351562 20.492188 13.632812 C 19.207031 13.960938 18.011719 13.953125 17.339844 12.417969 Z M 17.339844 12.417969 "/>
<path style=" stroke:none;fill-rule:nonzero;fill:rgb(3.921569%,3.921569%,3.921569%);fill-opacity:1;" d="M 16.664062 25.742188 C 16.414062 26.953125 16.082031 28.136719 15.75 29.414062 C 14.613281 29.308594 14.042969 28.546875 14.21875 27.324219 C 14.359375 26.355469 14.601562 25.402344 14.777344 24.550781 C 15.371094 24.929688 15.976562 25.320312 16.664062 25.742188 Z M 16.664062 25.742188 "/>
</g>
</svg>
